<?xml version="1.0" encoding="UTF-8"?>
<svg id="Calque_2" data-name="Calque 2" xmlns="http://www.w3.org/2000/svg" viewBox="0 0 28.39 28.39">
  <defs>
    <style>
      .cls-1 {
        fill: #fff;
      }
    </style>
  </defs>
  <g id="Capa_1" data-name="Capa 1">
    <path class="cls-1" d="m14.2,0C6.36,0,0,6.36,0,14.2s6.36,14.2,14.2,14.2,14.2-6.36,14.2-14.2S22.04,0,14.2,0Zm5.73,19.82s0,.05-.01.08c-.1.46-.64.68-1.06.47-3.35-1.66-6.89-2.04-10.61-1.26-.39.08-.8-.14-.89-.53-.02-.08-.02-.17-.01-.26v-.1c0-1.15,4.16-1.31,6.37-1.05,3.3.37,6.26,1.46,6.23,2.55v.1Zm2.05-3.87s0,.07-.02.1c-.13.59-.82.87-1.36.6-4.29-2.13-8.83-2.62-13.59-1.62-.5.11-1.02-.18-1.14-.68-.02-.11-.03-.22-.02-.33v-.12c.01-1.48,5.33-1.68,8.16-1.34,4.22.47,8.02,1.87,7.98,3.27v.12Zm2.69-4.15c-.15.75-1,1.11-1.69.79-5.44-2.57-11.15-3.09-17.11-1.72-.63.14-1.29-.21-1.45-.83-.03-.13-.04-.27-.03-.42l.02-.16c-.04-1.86,6.64-2.23,10.2-1.87,5.32.49,10.11,2.17,10.1,3.93l-.02.16s-.01.08-.02.12Z"/>
  </g>
</svg>