<?xml version="1.0" encoding="UTF-8"?>
<svg id="Calque_2" data-name="Calque 2" xmlns="http://www.w3.org/2000/svg" viewBox="0 0 15.14 28.25">
  <defs>
    <style>
      .cls-1 {
        fill: #fff;
      }
    </style>
  </defs>
  <g id="Capa_1" data-name="Capa 1">
    <path class="cls-1" d="m15.14.42v4.65c0,.23-.19.42-.42.42h-3.02c-.8,0-1.46.65-1.46,1.46v3.23h4.27c.34,0,.62.28.62.62v4.52c0,.34-.28.62-.62.62h-4.27v11.75c0,.31-.25.57-.57.57h-4.8c-.31,0-.57-.25-.57-.57v-11.75H.62c-.34,0-.62-.28-.62-.62v-4.52c0-.34.28-.62.62-.62h3.7v-3.76C4.31,2.87,7.18,0,10.72,0h4c.23,0,.42.19.42.42Z"/>
  </g>
</svg>