<?xml version="1.0" encoding="UTF-8"?>
<svg id="Calque_2" data-name="Calque 2" xmlns="http://www.w3.org/2000/svg" viewBox="0 0 28.4 28.36">
  <defs>
    <style>
      .cls-1 {
        fill: #fff;
      }
    </style>
  </defs>
  <g id="Capa_1" data-name="Capa 1">
    <g>
      <path class="cls-1" d="m3.78,0C1.7,0,0,1.7,0,3.78c0,2.09,1.7,3.79,3.78,3.79s3.78-1.7,3.78-3.79S5.87,0,3.78,0Z"/>
      <path class="cls-1" d="m6.63,9.09H.94c-.27,0-.49.22-.49.49v18.29c0,.27.22.49.49.49h5.68c.27,0,.49-.22.49-.49V9.58c0-.27-.22-.49-.49-.49Z"/>
      <path class="cls-1" d="m21.15,8.88c-2.08,0-3.91.63-5.02,1.67v-.96c0-.27-.22-.49-.49-.49h-5.45c-.27,0-.49.22-.49.49v18.29c0,.27.22.49.49.49h5.68c.27,0,.49-.22.49-.49v-9.05c0-2.6.48-4.21,2.86-4.21,2.35,0,2.52,1.73,2.52,4.36v8.89c0,.27.22.49.49.49h5.68c.27,0,.49-.22.49-.49v-10.03c0-4.17-.82-8.96-7.25-8.96Z"/>
    </g>
  </g>
</svg>