<?xml version="1.0" encoding="UTF-8"?>
<svg id="Calque_2" data-name="Calque 2" xmlns="http://www.w3.org/2000/svg" viewBox="0 0 27.63 27.63">
  <defs>
    <style>
      .cls-1 {
        fill: #fff;
      }
    </style>
  </defs>
  <g id="Capa_1" data-name="Capa 1">
    <path class="cls-1" d="m20.75,1.85c-2.12-1.24-4.43-1.85-6.93-1.85s-4.82.62-6.94,1.85c-2.12,1.24-3.79,2.91-5.03,5.03-1.24,2.12-1.85,4.43-1.85,6.94,0,2.79.76,5.33,2.28,7.61,1.52,2.28,3.52,3.96,5.99,5.05-.05-1.28.03-2.34.23-3.18l1.78-7.52c-.3-.59-.45-1.32-.45-2.19,0-1.02.26-1.87.77-2.55.52-.68,1.15-1.03,1.89-1.03.6,0,1.06.2,1.39.59.32.4.49.89.49,1.49,0,.37-.07.82-.21,1.36-.14.53-.32,1.15-.54,1.85-.22.7-.38,1.26-.48,1.68-.17.73-.03,1.36.41,1.88.44.52,1.03.78,1.76.78,1.28,0,2.34-.71,3.16-2.14.82-1.43,1.23-3.16,1.23-5.2,0-1.57-.51-2.85-1.52-3.83-1.01-.98-2.43-1.48-4.24-1.48-2.03,0-3.67.65-4.92,1.95-1.25,1.3-1.88,2.86-1.88,4.67,0,1.08.31,1.99.92,2.72.2.24.27.5.2.77-.02.07-.07.25-.14.54-.07.29-.12.47-.14.56-.1.38-.32.5-.68.36-.92-.38-1.63-1.05-2.1-2-.48-.95-.72-2.04-.72-3.29,0-.8.13-1.61.39-2.41.26-.8.66-1.58,1.21-2.33.55-.75,1.2-1.41,1.96-1.99.76-.58,1.69-1.04,2.78-1.39,1.09-.35,2.27-.52,3.53-.52,1.7,0,3.23.38,4.59,1.13,1.36.76,2.39,1.73,3.1,2.93.71,1.2,1.07,2.48,1.07,3.85,0,1.8-.31,3.42-.94,4.86-.62,1.44-1.51,2.57-2.64,3.39-1.14.82-2.43,1.23-3.89,1.23-.73,0-1.42-.17-2.05-.51-.64-.34-1.07-.75-1.31-1.21-.54,2.12-.86,3.39-.97,3.8-.23.85-.7,1.83-1.4,2.95,1.28.38,2.59.58,3.92.58,2.51,0,4.82-.62,6.93-1.85,2.12-1.24,3.79-2.91,5.03-5.03,1.24-2.12,1.85-4.43,1.85-6.93s-.62-4.82-1.85-6.94c-1.24-2.12-2.91-3.79-5.03-5.03Z"/>
  </g>
</svg>